<svg width="48" height="48" viewBox="0 0 48 48" fill="none" xmlns="http://www.w3.org/2000/svg">
<rect x="0.186279" width="47.0169" height="47.0169" rx="15" fill="#12215C"/>
<path d="M23.6949 25.983C23.9396 25.983 24.1788 25.9104 24.3823 25.7744C24.5858 25.6385 24.7444 25.4452 24.838 25.2192C24.9317 24.9931 24.9562 24.7443 24.9084 24.5043C24.8607 24.2643 24.7428 24.0438 24.5698 23.8708C24.3968 23.6977 24.1763 23.5799 23.9363 23.5322C23.6963 23.4844 23.4475 23.5089 23.2214 23.6026C22.9953 23.6962 22.8021 23.8548 22.6661 24.0583C22.5302 24.2617 22.4576 24.501 22.4576 24.7457C22.4576 25.0738 22.588 25.3885 22.82 25.6206C23.052 25.8526 23.3668 25.983 23.6949 25.983ZM29.8813 25.983C30.1261 25.983 30.3653 25.9104 30.5687 25.7744C30.7722 25.6385 30.9308 25.4452 31.0244 25.2192C31.1181 24.9931 31.1426 24.7443 31.0949 24.5043C31.0471 24.2643 30.9293 24.0438 30.7562 23.8708C30.5832 23.6977 30.3627 23.5799 30.1227 23.5322C29.8827 23.4844 29.6339 23.5089 29.4079 23.6026C29.1818 23.6962 28.9885 23.8548 28.8526 24.0583C28.7166 24.2617 28.6441 24.501 28.6441 24.7457C28.6441 25.0738 28.7744 25.3885 29.0064 25.6206C29.2385 25.8526 29.5532 25.983 29.8813 25.983ZM23.6949 30.9321C23.9396 30.9321 24.1788 30.8595 24.3823 30.7236C24.5858 30.5876 24.7444 30.3944 24.838 30.1683C24.9317 29.9422 24.9562 29.6934 24.9084 29.4534C24.8607 29.2134 24.7428 28.993 24.5698 28.8199C24.3968 28.6469 24.1763 28.529 23.9363 28.4813C23.6963 28.4336 23.4475 28.4581 23.2214 28.5517C22.9953 28.6454 22.8021 28.8039 22.6661 29.0074C22.5302 29.2109 22.4576 29.4501 22.4576 29.6948C22.4576 30.023 22.588 30.3377 22.82 30.5697C23.052 30.8018 23.3668 30.9321 23.6949 30.9321ZM29.8813 30.9321C30.1261 30.9321 30.3653 30.8595 30.5687 30.7236C30.7722 30.5876 30.9308 30.3944 31.0244 30.1683C31.1181 29.9422 31.1426 29.6934 31.0949 29.4534C31.0471 29.2134 30.9293 28.993 30.7562 28.8199C30.5832 28.6469 30.3627 28.529 30.1227 28.4813C29.8827 28.4336 29.6339 28.4581 29.4079 28.5517C29.1818 28.6454 28.9885 28.8039 28.8526 29.0074C28.7166 29.2109 28.6441 29.4501 28.6441 29.6948C28.6441 30.023 28.7744 30.3377 29.0064 30.5697C29.2385 30.8018 29.5532 30.9321 29.8813 30.9321ZM17.5085 25.983C17.7532 25.983 17.9924 25.9104 18.1959 25.7744C18.3993 25.6385 18.5579 25.4452 18.6516 25.2192C18.7452 24.9931 18.7697 24.7443 18.722 24.5043C18.6742 24.2643 18.5564 24.0438 18.3834 23.8708C18.2103 23.6977 17.9899 23.5799 17.7498 23.5322C17.5098 23.4844 17.2611 23.5089 17.035 23.6026C16.8089 23.6962 16.6156 23.8548 16.4797 24.0583C16.3437 24.2617 16.2712 24.501 16.2712 24.7457C16.2712 25.0738 16.4015 25.3885 16.6336 25.6206C16.8656 25.8526 17.1803 25.983 17.5085 25.983ZM32.3559 13.6101H31.1186V12.3728C31.1186 12.0446 30.9883 11.7299 30.7562 11.4979C30.5242 11.2659 30.2095 11.1355 29.8813 11.1355C29.5532 11.1355 29.2385 11.2659 29.0064 11.4979C28.7744 11.7299 28.6441 12.0446 28.6441 12.3728V13.6101H18.7458V12.3728C18.7458 12.0446 18.6154 11.7299 18.3834 11.4979C18.1513 11.2659 17.8366 11.1355 17.5085 11.1355C17.1803 11.1355 16.8656 11.2659 16.6336 11.4979C16.4015 11.7299 16.2712 12.0446 16.2712 12.3728V13.6101H15.0339C14.0494 13.6101 13.1053 14.0011 12.4092 14.6973C11.7131 15.3934 11.322 16.3375 11.322 17.3219V32.1694C11.322 33.1538 11.7131 34.098 12.4092 34.7941C13.1053 35.4902 14.0494 35.8813 15.0339 35.8813H32.3559C33.3404 35.8813 34.2845 35.4902 34.9806 34.7941C35.6767 34.098 36.0678 33.1538 36.0678 32.1694V17.3219C36.0678 16.3375 35.6767 15.3934 34.9806 14.6973C34.2845 14.0011 33.3404 13.6101 32.3559 13.6101ZM33.5932 32.1694C33.5932 32.4975 33.4629 32.8123 33.2308 33.0443C32.9988 33.2763 32.6841 33.4067 32.3559 33.4067H15.0339C14.7057 33.4067 14.391 33.2763 14.159 33.0443C13.927 32.8123 13.7966 32.4975 13.7966 32.1694V21.0338H33.5932V32.1694ZM33.5932 18.5592H13.7966V17.3219C13.7966 16.9938 13.927 16.6791 14.159 16.447C14.391 16.215 14.7057 16.0847 15.0339 16.0847H32.3559C32.6841 16.0847 32.9988 16.215 33.2308 16.447C33.4629 16.6791 33.5932 16.9938 33.5932 17.3219V18.5592ZM17.5085 30.9321C17.7532 30.9321 17.9924 30.8595 18.1959 30.7236C18.3993 30.5876 18.5579 30.3944 18.6516 30.1683C18.7452 29.9422 18.7697 29.6934 18.722 29.4534C18.6742 29.2134 18.5564 28.993 18.3834 28.8199C18.2103 28.6469 17.9899 28.529 17.7498 28.4813C17.5098 28.4336 17.2611 28.4581 17.035 28.5517C16.8089 28.6454 16.6156 28.8039 16.4797 29.0074C16.3437 29.2109 16.2712 29.4501 16.2712 29.6948C16.2712 30.023 16.4015 30.3377 16.6336 30.5697C16.8656 30.8018 17.1803 30.9321 17.5085 30.9321Z" fill="white"/>
</svg>
