<svg width="24" height="23" viewBox="0 0 24 23" fill="none" xmlns="http://www.w3.org/2000/svg">
<g id="clear_day">
<path id="clear_day_2" d="M10.9091 4.80347V0.812012H13.0909V4.80347H10.9091ZM18.1636 7.5476L16.6636 6.17553L19.7182 3.30667L21.2455 4.72863L18.1636 7.5476ZM19.6364 12.7864V10.7907H24V12.7864H19.6364ZM10.9091 22.765V18.7736H13.0909V22.765H10.9091ZM5.83636 7.49771L2.72727 4.72863L4.28182 3.33162L7.36364 6.15059L5.83636 7.49771ZM19.6909 20.2704L16.6636 17.4015L18.1364 16.0544L21.2455 18.7985L19.6909 20.2704ZM0 12.7864V10.7907H4.36364V12.7864H0ZM4.28182 20.2704L2.75455 18.8484L5.80909 16.0544L6.6 16.728L7.39091 17.4265L4.28182 20.2704ZM12 17.7757C10.1818 17.7757 8.63636 17.1936 7.36364 16.0294C6.09091 14.8653 5.45455 13.4516 5.45455 11.7885C5.45455 10.1254 6.09091 8.71177 7.36364 7.5476C8.63636 6.38342 10.1818 5.80134 12 5.80134C13.8182 5.80134 15.3636 6.38342 16.6364 7.5476C17.9091 8.71177 18.5455 10.1254 18.5455 11.7885C18.5455 13.4516 17.9091 14.8653 16.6364 16.0294C15.3636 17.1936 13.8182 17.7757 12 17.7757ZM12 15.78C13.2 15.78 14.2273 15.3892 15.0818 14.6075C15.9364 13.8258 16.3636 12.8862 16.3636 11.7885C16.3636 10.6909 15.9364 9.75122 15.0818 8.96956C14.2273 8.18789 13.2 7.79706 12 7.79706C10.8 7.79706 9.77273 8.18789 8.91818 8.96956C8.06364 9.75122 7.63636 10.6909 7.63636 11.7885C7.63636 12.8862 8.06364 13.8258 8.91818 14.6075C9.77273 15.3892 10.8 15.78 12 15.78Z" fill="black"/>
</g>
</svg>
