<svg width="16" height="14" viewBox="0 0 16 14" fill="none" xmlns="http://www.w3.org/2000/svg">
<path id="dark_mode" d="M8 13.9194C5.77778 13.9194 3.88889 13.2683 2.33333 11.966C0.777778 10.6637 0 9.0824 0 7.22199C0 5.36159 0.777778 3.78024 2.33333 2.47796C3.88889 1.17568 5.77778 0.524536 8 0.524536C8.20741 0.524536 8.41111 0.530737 8.61111 0.54314C8.81111 0.555543 9.00741 0.574147 9.2 0.598952C8.59259 0.95863 8.10741 1.42683 7.74444 2.00356C7.38148 2.58028 7.2 3.20352 7.2 3.87326C7.2 4.98951 7.66667 5.93831 8.6 6.71968C9.53333 7.50105 10.6667 7.89174 12 7.89174C12.8148 7.89174 13.563 7.7398 14.2444 7.43594C14.9259 7.13207 15.4815 6.72588 15.9111 6.21737C15.9407 6.37861 15.963 6.54294 15.9778 6.71038C15.9926 6.87782 16 7.04835 16 7.22199C16 9.0824 15.2222 10.6637 13.6667 11.966C12.1111 13.2683 10.2222 13.9194 8 13.9194ZM8 12.4311C9.3037 12.4311 10.4741 12.1304 11.5111 11.5288C12.5481 10.9273 13.3037 10.1428 13.7778 9.17542C13.4815 9.23743 13.1852 9.28704 12.8889 9.32425C12.5926 9.36146 12.2963 9.38006 12 9.38006C10.1778 9.38006 8.62593 8.84364 7.34444 7.77081C6.06296 6.69798 5.42222 5.3988 5.42222 3.87326C5.42222 3.62521 5.44444 3.37716 5.48889 3.1291C5.53333 2.88105 5.59259 2.63299 5.66667 2.38494C4.51111 2.78183 3.57407 3.41436 2.85556 4.28255C2.13704 5.15074 1.77778 6.13055 1.77778 7.22199C1.77778 8.6607 2.38519 9.88857 3.6 10.9056C4.81481 11.9226 6.28148 12.4311 8 12.4311Z" fill="black"/>
</svg>
