<svg width="48" height="48" viewBox="0 0 48 48" fill="none" xmlns="http://www.w3.org/2000/svg">
<rect width="48" height="48" rx="15" fill="#12215C"/>
<path d="M16.2487 20.8421H16.8481C17.0179 22.0273 17.4684 23.1526 18.1608 24.1208C18.8531 25.0889 19.7665 25.8708 20.8219 26.399L20.0241 30.46C19.3838 30.6509 18.8212 31.0474 18.4202 31.5905C18.0192 32.1336 17.8013 32.7942 17.799 33.4737V35.579C17.799 35.8581 17.9078 36.1259 18.1017 36.3233C18.2955 36.5207 18.5583 36.6316 18.8324 36.6316H29.1674C29.4415 36.6316 29.7043 36.5207 29.8982 36.3233C30.092 36.1259 30.2009 35.8581 30.2009 35.579V33.4737C30.1985 32.7942 29.9806 32.1336 29.5796 31.5905C29.1787 31.0474 28.6161 30.6509 27.9758 30.46L27.1779 26.399C28.2334 25.8708 29.1467 25.0889 29.8391 24.1208C30.5314 23.1526 30.9819 22.0273 31.1517 20.8421H31.7511C32.7105 20.8421 33.6305 20.454 34.3089 19.763C34.9872 19.0721 35.3683 18.135 35.3683 17.1579C35.3683 16.1808 34.9872 15.2437 34.3089 14.5528C33.6305 13.8619 32.7105 13.4737 31.7511 13.4737H31.0442C30.8312 12.8601 30.4373 12.3285 29.9163 11.9517C29.3954 11.5748 28.7728 11.3711 28.1339 11.3684H19.8659C19.227 11.3711 18.6044 11.5748 18.0835 11.9517C17.5625 12.3285 17.1686 12.8601 16.9556 13.4737H16.2487C15.2894 13.4737 14.3693 13.8619 13.691 14.5528C13.0126 15.2437 12.6315 16.1808 12.6315 17.1579C12.6315 18.135 13.0126 19.0721 13.691 19.763C14.3693 20.454 15.2894 20.8421 16.2487 20.8421ZM28.1339 34.5263H19.8659V33.4737C19.8659 33.1945 19.9748 32.9268 20.1686 32.7294C20.3625 32.532 20.6253 32.4211 20.8994 32.4211H27.1004C27.3745 32.4211 27.6374 32.532 27.8312 32.7294C28.025 32.9268 28.1339 33.1945 28.1339 33.4737V34.5263ZM25.2205 27.1579L25.8406 30.3158H22.1603L22.7804 27.1579H25.2205ZM33.3013 17.1579C33.3013 17.5767 33.138 17.9783 32.8473 18.2744C32.5566 18.5705 32.1623 18.7369 31.7511 18.7369H31.2344V15.579H31.7511C32.1623 15.579 32.5566 15.7453 32.8473 16.0414C33.138 16.3375 33.3013 16.7392 33.3013 17.1579ZM19.8659 13.4737H28.1339C28.408 13.4737 28.6709 13.5846 28.8647 13.782C29.0585 13.9794 29.1674 14.2472 29.1674 14.5263V19.7895C29.1674 21.1854 28.6229 22.5241 27.6539 23.5111C26.6848 24.4981 25.3704 25.0526 23.9999 25.0526C22.6294 25.0526 21.3151 24.4981 20.346 23.5111C19.3769 22.5241 18.8324 21.1854 18.8324 19.7895V14.5263C18.8324 14.2472 18.9413 13.9794 19.1352 13.782C19.329 13.5846 19.5918 13.4737 19.8659 13.4737ZM16.2487 15.579H16.7655V18.7369H16.2487C15.8376 18.7369 15.4433 18.5705 15.1525 18.2744C14.8618 17.9783 14.6985 17.5767 14.6985 17.1579C14.6985 16.7392 14.8618 16.3375 15.1525 16.0414C15.4433 15.7453 15.8376 15.579 16.2487 15.579Z" fill="white"/>
</svg>
