<svg width="360" height="64" viewBox="0 0 360 64" fill="none" xmlns="http://www.w3.org/2000/svg">
<rect width="360" height="64" fill="white"/>
<path d="M52.303 30.8347V27.9298C52.303 27.1883 52.9086 26.5872 53.6555 26.5872H56.386C56.7447 26.5872 57.0887 26.7286 57.3423 26.9804C57.596 27.2322 57.7384 27.5737 57.7384 27.9298V30.8347C57.7362 31.1429 57.858 31.4394 58.0767 31.6582C58.2955 31.8769 58.5932 32 58.9038 32H60.7666C61.6366 32.0022 62.4718 31.6607 63.0878 31.0508C63.7038 30.4408 64.05 29.6126 64.05 28.7489V20.4735C64.05 19.7758 63.7385 19.114 63.1994 18.6664L56.8623 13.6421C55.76 12.7611 54.1806 12.7896 53.1111 13.7096L46.9187 18.6664C46.3541 19.1009 46.0167 19.7646 46 20.4735V28.7405C46 30.5407 47.47 32 49.2834 32H51.1037C51.7487 32 52.2728 31.4834 52.2775 30.8431L52.303 30.8347Z" fill="#12215C"/>
<path d="M129 14.7308V29.3462C129 29.54 128.923 29.7258 128.787 29.8629C128.651 29.9999 128.466 30.0769 128.273 30.0769H115.909C115.523 30.0769 115.153 30.2309 114.881 30.505C114.608 30.7791 114.455 31.1508 114.455 31.5385H126.818C127.011 31.5385 127.196 31.6155 127.332 31.7525C127.469 31.8895 127.545 32.0754 127.545 32.2692C127.545 32.463 127.469 32.6489 127.332 32.786C127.196 32.923 127.011 33 126.818 33H113.727C113.534 33 113.349 32.923 113.213 32.786C113.077 32.6489 113 32.463 113 32.2692V16.9231C113 16.1478 113.306 15.4043 113.852 14.8561C114.398 14.308 115.138 14 115.909 14H128.273C128.466 14 128.651 14.077 128.787 14.214C128.923 14.3511 129 14.537 129 14.7308Z" fill="#C3C3C3"/>
<g clip-path="url(#clip0_1_3488)">
<mask id="mask0_1_3488" style="mask-type:luminance" maskUnits="userSpaceOnUse" x="189" y="13" width="19" height="19">
<path d="M189 13H208V32H189V13Z" fill="white"/>
</mask>
<g mask="url(#mask0_1_3488)">
<path fill-rule="evenodd" clip-rule="evenodd" d="M205.886 15.128C206.991 16.2997 207.622 17.9004 207.847 19.6587C208.072 21.3489 207.982 22.4984 207.982 22.4984C207.982 22.4984 208.05 23.6479 207.824 25.3381C207.599 27.0956 206.968 28.6972 205.863 29.8688C204.692 30.9732 203.091 31.6042 201.333 31.8298C199.642 32.0325 198.493 31.9881 198.493 31.9881C198.493 31.9881 197.344 32.0546 195.653 31.8298C193.896 31.6042 192.295 30.9732 191.123 29.8688C190.019 28.6972 189.387 27.0964 189.162 25.3381C188.959 23.6479 189.004 22.4984 189.004 22.4984C189.004 22.4984 188.959 21.3489 189.184 19.6587C189.41 17.9004 190.041 16.3005 191.145 15.128C192.317 14.0236 193.918 13.3927 195.676 13.1671C197.366 12.9644 198.516 13.0095 198.516 13.0095C198.516 13.0095 199.665 12.9422 201.355 13.1678C203.113 13.3927 204.714 14.0236 205.886 15.128ZM194.211 19.726H192.52V24.7072H193.444V23.2877H194.211C194.481 23.2877 194.729 23.2418 194.932 23.1516C195.135 23.0613 195.338 22.9267 195.496 22.7692C195.661 22.6098 195.791 22.4178 195.879 22.2055C195.969 21.9799 196.013 21.7543 196.013 21.5065C196.015 21.2671 195.969 21.0299 195.879 20.8082C195.791 20.5959 195.661 20.404 195.496 20.2446C195.336 20.0793 195.144 19.9488 194.932 19.8614C194.703 19.7702 194.458 19.7245 194.211 19.7268L194.211 19.726ZM193.422 22.4082V20.5604H194.143C194.279 20.5604 194.413 20.5826 194.527 20.6277C194.637 20.6744 194.737 20.7434 194.819 20.8304C194.887 20.9206 194.954 21.0109 195 21.1233C195.045 21.2365 195.067 21.3489 195.067 21.4843C195.067 21.6189 195.045 21.7321 195 21.8453C194.96 21.9561 194.897 22.0573 194.815 22.1426C194.734 22.2279 194.635 22.2954 194.527 22.3409C194.404 22.3875 194.274 22.4103 194.143 22.4082H193.422ZM197.434 24.5718C197.682 24.6621 197.907 24.7072 198.156 24.7072C198.426 24.7072 198.651 24.6621 198.876 24.5718C199.102 24.4594 199.305 24.324 199.44 24.1435V24.7072H200.364V20.695H199.44V21.2136C199.282 21.0552 199.102 20.9206 198.877 20.8304C198.648 20.737 198.402 20.6912 198.155 20.6958C197.885 20.6958 197.659 20.7401 197.411 20.8304C197.186 20.9206 196.96 21.0331 196.78 21.2136C196.593 21.3946 196.44 21.6084 196.329 21.8445C196.217 22.0923 196.172 22.386 196.172 22.7011C196.172 23.017 196.24 23.3099 196.352 23.5577C196.465 23.8055 196.623 24.0089 196.803 24.1886C196.983 24.347 197.209 24.4816 197.434 24.5718ZM198.787 23.7833C198.651 23.8506 198.494 23.8736 198.313 23.8736C198.151 23.8691 197.992 23.8386 197.84 23.7833L197.837 23.7817C197.702 23.7144 197.568 23.6471 197.457 23.5355C197.362 23.416 197.279 23.2877 197.209 23.1523C197.145 23.0107 197.114 22.8564 197.118 22.7011C197.118 22.5436 197.141 22.386 197.209 22.2506C197.254 22.1161 197.343 22.0028 197.457 21.8896C197.566 21.7814 197.696 21.697 197.84 21.6418C197.998 21.5746 198.156 21.5516 198.313 21.5516C198.471 21.5516 198.628 21.5746 198.787 21.6648C198.944 21.7321 199.056 21.7994 199.17 21.9126C199.282 22.0028 199.349 22.1382 199.417 22.2736C199.485 22.4082 199.508 22.5665 199.508 22.7241C199.508 22.8816 199.485 23.0391 199.417 23.1753C199.356 23.3088 199.273 23.4307 199.17 23.5355C199.056 23.6479 198.922 23.716 198.787 23.7833ZM202.776 23.4453L201.648 20.718H200.679L202.302 24.5275L201.469 26.5328H202.415L204.782 20.718H203.812L202.776 23.4453Z" fill="#C3C3C3"/>
</g>
</g>
<path d="M273.889 14H259.111C257.95 14 257 14.95 257 16.1111V30.8889C257 32.05 257.95 33 259.111 33H273.889C275.05 33 276 32.05 276 30.8889V16.1111C276 14.95 275.05 14 273.889 14ZM263.333 28.7778H261.222V21.3889H263.333V28.7778ZM267.556 28.7778H265.444V18.2222H267.556V28.7778ZM271.778 28.7778H269.667V24.5556H271.778V28.7778Z" fill="#C3C3C3"/>
<path d="M313 16.6666C313.972 16.6666 314.905 17.0529 315.593 17.7406C316.28 18.4282 316.667 19.3608 316.667 20.3333C316.667 21.3058 316.28 22.2384 315.593 22.926C314.905 23.6137 313.972 24 313 24C312.027 24 311.095 23.6137 310.407 22.926C309.72 22.2384 309.333 21.3058 309.333 20.3333C309.333 19.3608 309.72 18.4282 310.407 17.7406C311.095 17.0529 312.027 16.6666 313 16.6666ZM313 25.8333C317.052 25.8333 320.333 27.4741 320.333 29.5V31.3333H305.667V29.5C305.667 27.4741 308.948 25.8333 313 25.8333Z" fill="#C3C3C3"/>
<defs>
<clipPath id="clip0_1_3488">
<rect width="19" height="19" fill="white" transform="translate(189 13)"/>
</clipPath>
</defs>
</svg>
