<svg width="48" height="48" viewBox="0 0 48 48" fill="none" xmlns="http://www.w3.org/2000/svg">
<rect width="48" height="48" rx="15" fill="#12215C"/>
<path d="M24 26.5263C24.2498 26.5263 24.4941 26.4522 24.7018 26.3135C24.9095 26.1747 25.0714 25.9774 25.167 25.7466C25.2626 25.5158 25.2876 25.2618 25.2389 25.0167C25.1902 24.7717 25.0699 24.5466 24.8932 24.37C24.7165 24.1933 24.4915 24.073 24.2464 24.0243C24.0014 23.9755 23.7474 24.0006 23.5166 24.0962C23.2858 24.1918 23.0885 24.3537 22.9497 24.5614C22.8109 24.7691 22.7369 25.0133 22.7369 25.2632C22.7369 25.5982 22.8699 25.9195 23.1068 26.1564C23.3437 26.3932 23.665 26.5263 24 26.5263ZM30.3158 26.5263C30.5656 26.5263 30.8099 26.4522 31.0176 26.3135C31.2253 26.1747 31.3872 25.9774 31.4828 25.7466C31.5784 25.5158 31.6034 25.2618 31.5547 25.0167C31.506 24.7717 31.3856 24.5466 31.209 24.37C31.0323 24.1933 30.8073 24.073 30.5622 24.0243C30.3172 23.9755 30.0632 24.0006 29.8324 24.0962C29.6016 24.1918 29.4043 24.3537 29.2655 24.5614C29.1267 24.7691 29.0526 25.0133 29.0526 25.2632C29.0526 25.5982 29.1857 25.9195 29.4226 26.1564C29.6595 26.3932 29.9808 26.5263 30.3158 26.5263ZM24 31.579C24.2498 31.579 24.4941 31.5049 24.7018 31.3661C24.9095 31.2273 25.0714 31.03 25.167 30.7992C25.2626 30.5684 25.2876 30.3144 25.2389 30.0694C25.1902 29.8243 25.0699 29.5993 24.8932 29.4226C24.7165 29.246 24.4915 29.1257 24.2464 29.0769C24.0014 29.0282 23.7474 29.0532 23.5166 29.1488C23.2858 29.2444 23.0885 29.4063 22.9497 29.614C22.8109 29.8218 22.7369 30.066 22.7369 30.3158C22.7369 30.6508 22.8699 30.9721 23.1068 31.209C23.3437 31.4459 23.665 31.579 24 31.579ZM30.3158 31.579C30.5656 31.579 30.8099 31.5049 31.0176 31.3661C31.2253 31.2273 31.3872 31.03 31.4828 30.7992C31.5784 30.5684 31.6034 30.3144 31.5547 30.0694C31.506 29.8243 31.3856 29.5993 31.209 29.4226C31.0323 29.246 30.8073 29.1257 30.5622 29.0769C30.3172 29.0282 30.0632 29.0532 29.8324 29.1488C29.6016 29.2444 29.4043 29.4063 29.2655 29.614C29.1267 29.8218 29.0526 30.066 29.0526 30.3158C29.0526 30.6508 29.1857 30.9721 29.4226 31.209C29.6595 31.4459 29.9808 31.579 30.3158 31.579ZM17.6842 26.5263C17.9341 26.5263 18.1783 26.4522 18.386 26.3135C18.5937 26.1747 18.7556 25.9774 18.8512 25.7466C18.9468 25.5158 18.9719 25.2618 18.9231 25.0167C18.8744 24.7717 18.7541 24.5466 18.5774 24.37C18.4008 24.1933 18.1757 24.073 17.9307 24.0243C17.6856 23.9755 17.4317 24.0006 17.2008 24.0962C16.97 24.1918 16.7728 24.3537 16.634 24.5614C16.4952 24.7691 16.4211 25.0133 16.4211 25.2632C16.4211 25.5982 16.5542 25.9195 16.791 26.1564C17.0279 26.3932 17.3492 26.5263 17.6842 26.5263ZM32.8421 13.8948H31.579V12.6316C31.579 12.2966 31.4459 11.9753 31.209 11.7384C30.9721 11.5015 30.6508 11.3684 30.3158 11.3684C29.9808 11.3684 29.6595 11.5015 29.4226 11.7384C29.1857 11.9753 29.0526 12.2966 29.0526 12.6316V13.8948H18.9474V12.6316C18.9474 12.2966 18.8143 11.9753 18.5774 11.7384C18.3405 11.5015 18.0192 11.3684 17.6842 11.3684C17.3492 11.3684 17.0279 11.5015 16.791 11.7384C16.5542 11.9753 16.4211 12.2966 16.4211 12.6316V13.8948H15.1579C14.1529 13.8948 13.189 14.294 12.4784 15.0047C11.7677 15.7153 11.3684 16.6792 11.3684 17.6842V32.8421C11.3684 33.8471 11.7677 34.811 12.4784 35.5217C13.189 36.2323 14.1529 36.6316 15.1579 36.6316H32.8421C33.8471 36.6316 34.811 36.2323 35.5217 35.5217C36.2323 34.811 36.6316 33.8471 36.6316 32.8421V17.6842C36.6316 16.6792 36.2323 15.7153 35.5217 15.0047C34.811 14.294 33.8471 13.8948 32.8421 13.8948ZM34.1053 32.8421C34.1053 33.1771 33.9722 33.4984 33.7353 33.7353C33.4984 33.9722 33.1771 34.1053 32.8421 34.1053H15.1579C14.8229 34.1053 14.5016 33.9722 14.2647 33.7353C14.0278 33.4984 13.8948 33.1771 13.8948 32.8421V21.4737H34.1053V32.8421ZM34.1053 18.9474H13.8948V17.6842C13.8948 17.3492 14.0278 17.0279 14.2647 16.791C14.5016 16.5542 14.8229 16.4211 15.1579 16.4211H32.8421C33.1771 16.4211 33.4984 16.5542 33.7353 16.791C33.9722 17.0279 34.1053 17.3492 34.1053 17.6842V18.9474ZM17.6842 31.579C17.9341 31.579 18.1783 31.5049 18.386 31.3661C18.5937 31.2273 18.7556 31.03 18.8512 30.7992C18.9468 30.5684 18.9719 30.3144 18.9231 30.0694C18.8744 29.8243 18.7541 29.5993 18.5774 29.4226C18.4008 29.246 18.1757 29.1257 17.9307 29.0769C17.6856 29.0282 17.4317 29.0532 17.2008 29.1488C16.97 29.2444 16.7728 29.4063 16.634 29.614C16.4952 29.8218 16.4211 30.066 16.4211 30.3158C16.4211 30.6508 16.5542 30.9721 16.791 31.209C17.0279 31.4459 17.3492 31.579 17.6842 31.579Z" fill="white"/>
</svg>
