<svg width="18" height="20" viewBox="0 0 18 20" fill="none" xmlns="http://www.w3.org/2000/svg">
<path d="M9 0C8.40326 0 7.83097 0.234126 7.40901 0.650874C6.98705 1.06762 6.75 1.63285 6.75 2.22222V2.60111C4.12875 3.51667 2.25 5.98667 2.25 8.88889V14.4444H1.125C0.826631 14.4444 0.540483 14.5615 0.329505 14.7699C0.118527 14.9783 0 15.2609 0 15.5556C0 15.8502 0.118527 16.1329 0.329505 16.3412C0.540483 16.5496 0.826631 16.6667 1.125 16.6667H16.875C17.1734 16.6667 17.4595 16.5496 17.6705 16.3412C17.8815 16.1329 18 15.8502 18 15.5556C18 15.2609 17.8815 14.9783 17.6705 14.7699C17.4595 14.5615 17.1734 14.4444 16.875 14.4444H15.75V8.88889C15.7502 7.50993 15.3175 6.16482 14.5116 5.03876C13.7057 3.91271 12.5662 3.06107 11.25 2.60111V2.22222C11.25 1.63285 11.0129 1.06762 10.591 0.650874C10.169 0.234126 9.59674 0 9 0ZM9 20C8.40326 20 7.83097 19.7659 7.40901 19.3491C6.98705 18.9324 6.75 18.3671 6.75 17.7778H11.25C11.25 18.3671 11.0129 18.9324 10.591 19.3491C10.169 19.7659 9.59674 20 9 20Z" fill="white"/>
</svg>
