<svg width="20" height="20" viewBox="0 0 20 20" fill="none" xmlns="http://www.w3.org/2000/svg">
<path d="M19.4701 16.8115L15.0642 12.4056C15.8313 11.1634 16.2951 9.71437 16.2951 8.14753C16.2951 3.64759 12.6475 0 8.14754 0C3.64759 0 0 3.64759 0 8.14753C0 12.6475 3.64759 16.2951 8.14754 16.2951C9.71437 16.2951 11.1634 15.8313 12.4043 15.0654L16.8115 19.4714C17.1662 19.8143 17.6414 20.0041 18.1348 19.9999C18.6281 19.9957 19.1001 19.7978 19.4489 19.4489C19.7976 19.0999 19.9953 18.6279 19.9993 18.1345C20.0033 17.6412 19.8132 17.166 19.4701 16.8115ZM8.14754 13.7881C5.03267 13.7881 2.50693 11.2624 2.50693 8.14753C2.50693 5.03267 5.03267 2.50693 8.14754 2.50693C11.2624 2.50693 13.7881 5.03267 13.7881 8.14753C13.7881 11.2624 11.2624 13.7881 8.14754 13.7881Z" fill="white"/>
</svg>
