<svg width="48" height="48" viewBox="0 0 48 48" fill="none" xmlns="http://www.w3.org/2000/svg">
<rect x="0.898438" width="47.0169" height="47.0169" rx="15" fill="#12215C"/>
<path d="M16.8144 20.4152H17.4015C17.5678 21.5761 18.0091 22.6783 18.6873 23.6266C19.3654 24.575 20.2601 25.3409 21.2939 25.8582L20.5124 29.8361C19.8852 30.023 19.3341 30.4115 18.9414 30.9434C18.5486 31.4754 18.3352 32.1224 18.3329 32.788V34.8502C18.3329 35.1236 18.4395 35.3859 18.6294 35.5793C18.8192 35.7726 19.0767 35.8813 19.3452 35.8813H29.4685C29.737 35.8813 29.9944 35.7726 30.1843 35.5793C30.3741 35.3859 30.4808 35.1236 30.4808 34.8502V32.788C30.4785 32.1224 30.2651 31.4754 29.8723 30.9434C29.4795 30.4115 28.9285 30.023 28.3013 29.8361L27.5197 25.8582C28.5536 25.3409 29.4482 24.575 30.1264 23.6266C30.8046 22.6783 31.2458 21.5761 31.4121 20.4152H31.9993C32.939 20.4152 33.8402 20.035 34.5047 19.3582C35.1691 18.6814 35.5424 17.7635 35.5424 16.8064C35.5424 15.8493 35.1691 14.9314 34.5047 14.2546C33.8402 13.5779 32.939 13.1976 31.9993 13.1976H31.3069C31.0982 12.5966 30.7124 12.0759 30.2021 11.7068C29.6918 11.3377 29.082 11.1381 28.4561 11.1355H20.3575C19.7316 11.1381 19.1219 11.3377 18.6116 11.7068C18.1013 12.0759 17.7154 12.5966 17.5068 13.1976H16.8144C15.8747 13.1976 14.9735 13.5779 14.309 14.2546C13.6445 14.9314 13.2712 15.8493 13.2712 16.8064C13.2712 17.7635 13.6445 18.6814 14.309 19.3582C14.9735 20.035 15.8747 20.4152 16.8144 20.4152ZM28.4561 33.8191H20.3575V32.788C20.3575 32.5146 20.4642 32.2523 20.654 32.059C20.8439 31.8656 21.1014 31.757 21.3699 31.757H27.4438C27.7123 31.757 27.9698 31.8656 28.1596 32.059C28.3495 32.2523 28.4561 32.5146 28.4561 32.788V33.8191ZM25.6024 26.6016L26.2098 29.6948H22.6049L23.2123 26.6016H25.6024ZM33.5178 16.8064C33.5178 17.2166 33.3578 17.61 33.073 17.9C32.7882 18.1901 32.402 18.353 31.9993 18.353H31.4931V15.2598H31.9993C32.402 15.2598 32.7882 15.4227 33.073 15.7128C33.3578 16.0028 33.5178 16.3962 33.5178 16.8064ZM20.3575 13.1976H28.4561C28.7246 13.1976 28.9821 13.3063 29.172 13.4996C29.3618 13.693 29.4685 13.9553 29.4685 14.2287V19.3841C29.4685 20.7514 28.9352 22.0627 27.9859 23.0295C27.0367 23.9963 25.7493 24.5395 24.4068 24.5395C23.0644 24.5395 21.777 23.9963 20.8277 23.0295C19.8785 22.0627 19.3452 20.7514 19.3452 19.3841V14.2287C19.3452 13.9553 19.4519 13.693 19.6417 13.4996C19.8316 13.3063 20.089 13.1976 20.3575 13.1976ZM16.8144 15.2598H17.3205V18.353H16.8144C16.4117 18.353 16.0254 18.1901 15.7406 17.9C15.4559 17.61 15.2959 17.2166 15.2959 16.8064C15.2959 16.3962 15.4559 16.0028 15.7406 15.7128C16.0254 15.4227 16.4117 15.2598 16.8144 15.2598Z" fill="white"/>
</svg>
