<svg width="48" height="48" viewBox="0 0 48 48" fill="none" xmlns="http://www.w3.org/2000/svg">
<rect width="48" height="48" rx="15" fill="#12215C"/>
<path d="M10.7038 13.2434C10.5784 13.2429 10.4541 13.2665 10.3382 13.3127C10.2222 13.359 10.1169 13.427 10.0282 13.5129C9.93955 13.5988 9.86931 13.7009 9.82156 13.8132C9.7738 13.9255 9.74948 14.0459 9.74998 14.1674V32.5694C9.74948 32.6909 9.7738 32.8112 9.82156 32.9236C9.86931 33.0359 9.93955 33.1379 10.0282 33.2238C10.1169 33.3097 10.2222 33.3778 10.3382 33.424C10.4541 33.4703 10.5784 33.4939 10.7038 33.4934H37.3038C37.4285 33.4929 37.5519 33.4686 37.667 33.4219C37.7821 33.3752 37.8865 33.307 37.9744 33.2212C38.0623 33.1354 38.1318 33.0337 38.1791 32.9219C38.2264 32.81 38.2504 32.6903 38.2499 32.5694V14.1674C38.2504 14.0465 38.2264 13.9267 38.1791 13.8149C38.1318 13.7031 38.0623 13.6013 37.9744 13.5155C37.8865 13.4297 37.7821 13.3616 37.667 13.3149C37.5519 13.2682 37.4285 13.2439 37.3038 13.2434H10.7038ZM11.65 15.084H23.0538V18.859C20.8916 19.2878 19.2519 21.1551 19.2519 23.3721C19.2519 25.589 20.8916 27.4508 23.0538 27.8778V31.6528H11.65V27.9717H14.5057C14.6304 27.9712 14.7539 27.9469 14.8689 27.9002C14.984 27.8535 15.0885 27.7853 15.1763 27.6995C15.2642 27.6137 15.3337 27.512 15.381 27.4001C15.4283 27.2883 15.4524 27.1685 15.4519 27.0477V19.6891C15.4524 19.5682 15.4283 19.4485 15.381 19.3366C15.3337 19.2248 15.2642 19.1231 15.1763 19.0373C15.0885 18.9515 14.984 18.8833 14.8689 18.8366C14.7539 18.7899 14.6304 18.7656 14.5057 18.7651H11.65V15.084ZM24.9538 15.084H36.3576V18.7651H33.5019C33.3771 18.7656 33.2537 18.7899 33.1386 18.8366C33.0235 18.8833 32.9191 18.9515 32.8312 19.0373C32.7434 19.1231 32.6738 19.2248 32.6265 19.3366C32.5792 19.4485 32.5552 19.5682 32.5557 19.6891V27.0477C32.5552 27.1685 32.5792 27.2883 32.6265 27.4001C32.6738 27.512 32.7434 27.6137 32.8312 27.6995C32.9191 27.7853 33.0235 27.8535 33.1386 27.9002C33.2537 27.9469 33.3771 27.9712 33.5019 27.9717H36.3576V31.6528H24.9538V27.8759C27.115 27.4462 28.7557 25.5863 28.7557 23.3721C28.7557 21.1579 27.1141 19.2915 24.9538 18.8608V15.084ZM11.65 20.6075H13.5519V26.1292H11.65V20.6075ZM24 20.6075C24.3753 20.6059 24.7472 20.6764 25.0943 20.8147C25.4414 20.9531 25.7567 21.1566 26.0222 21.4136C26.2877 21.6706 26.498 21.976 26.6411 22.3121C26.7841 22.6482 26.857 23.0085 26.8557 23.3721C26.8568 23.7352 26.7836 24.095 26.6404 24.4306C26.4972 24.7662 26.2867 25.071 26.0212 25.3274C25.7557 25.5838 25.4403 25.7866 25.0934 25.9243C24.7465 26.0619 24.3748 26.1316 24 26.1292C23.6256 26.1314 23.2544 26.0616 22.9081 25.9238C22.5618 25.7861 22.2471 25.5831 21.9823 25.3266C21.7176 25.0701 21.508 24.7653 21.3658 24.4298C21.2236 24.0943 21.1515 23.7348 21.1538 23.3721C21.1514 23.009 21.2233 22.6491 21.3654 22.3131C21.5075 21.9771 21.7169 21.6718 21.9816 21.4147C22.2463 21.1576 22.5609 20.9539 22.9074 20.8154C23.2538 20.6768 23.6252 20.6062 24 20.6075ZM34.4576 20.6075H36.3576V26.1292H34.4576V20.6075Z" fill="white"/>
</svg>
