<svg width="19" height="19" viewBox="0 0 19 19" fill="none" xmlns="http://www.w3.org/2000/svg">
<mask id="mask0_21_558" style="mask-type:luminance" maskUnits="userSpaceOnUse" x="0" y="0" width="19" height="19">
<path d="M0 0H19V19H0V0Z" fill="white"/>
</mask>
<g mask="url(#mask0_21_558)">
<path fill-rule="evenodd" clip-rule="evenodd" d="M16.8861 2.12802C17.9904 3.29968 18.6214 4.90043 18.847 6.65872C19.0719 8.34893 18.9816 9.49843 18.9816 9.49843C18.9816 9.49843 19.0497 10.6479 18.8241 12.3381C18.5992 14.0956 17.9675 15.6972 16.8631 16.8688C15.6914 17.9732 14.0907 18.6042 12.3332 18.8298C10.6422 19.0325 9.49269 18.9881 9.49269 18.9881C9.49269 18.9881 8.34398 19.0546 6.65298 18.8298C4.89548 18.6042 3.29473 17.9732 2.12306 16.8688C1.01869 15.6972 0.386939 14.0964 0.162106 12.3381C-0.0413526 10.6479 0.0037724 9.49843 0.0037724 9.49843C0.0037724 9.49843 -0.0413526 8.34893 0.184272 6.65872C0.409897 4.90043 1.04086 3.30047 2.14523 2.12802C3.3169 1.02364 4.91765 0.392682 6.67594 0.167057C8.36615 -0.0356093 9.51565 0.00951576 9.51565 0.00951576C9.51565 0.00951576 10.6651 -0.0577759 12.3554 0.167849C14.1129 0.392682 15.7136 1.02364 16.8861 2.12802ZM5.21056 6.72602H3.52036V11.7072H4.44423V10.2877H5.21056C5.48131 10.2877 5.72911 10.2418 5.93177 10.1516C6.13444 10.0613 6.3379 9.92672 6.49544 9.76918C6.66072 9.60977 6.79118 9.41785 6.87861 9.20552C6.96886 8.97989 7.01319 8.75427 7.01319 8.50647C7.01465 8.26714 6.96892 8.02987 6.87861 7.80822C6.79118 7.59589 6.66072 7.40397 6.49544 7.24456C6.33603 7.07928 6.14411 6.94881 5.93177 6.86139C5.70264 6.7702 5.45795 6.72449 5.21136 6.72681L5.21056 6.72602ZM4.42206 9.40818V7.56043H5.14248C5.27865 7.56043 5.41323 7.5826 5.52644 7.62772C5.637 7.67438 5.73672 7.74337 5.81936 7.83039C5.88665 7.92064 5.95394 8.01089 5.99986 8.12331C6.04498 8.23651 6.06715 8.34893 6.06715 8.48431C6.06715 8.61889 6.04498 8.7321 5.99986 8.84531C5.9594 8.9561 5.89645 9.05732 5.81498 9.14261C5.7335 9.2279 5.63527 9.29541 5.52644 9.34089C5.40416 9.38748 5.27411 9.41031 5.14327 9.40818H4.42206ZM8.43344 11.5718C8.68202 11.6621 8.90685 11.7072 9.15544 11.7072C9.4254 11.7072 9.65102 11.6621 9.87586 11.5718C10.1015 11.4594 10.3049 11.324 10.4395 11.1435V11.7072H11.3642V7.69502H10.4395V8.21356C10.282 8.05522 10.1015 7.92064 9.87665 7.83039C9.64762 7.73695 9.40196 7.69116 9.15465 7.69581C8.88469 7.69581 8.65906 7.74014 8.41127 7.83039C8.18565 7.92064 7.96002 8.03306 7.78031 8.21356C7.59267 8.39459 7.43974 8.60843 7.32906 8.84452C7.21665 9.09231 7.17152 9.38601 7.17152 9.7011C7.17152 10.017 7.2396 10.3099 7.35202 10.5577C7.46444 10.8055 7.62277 11.0089 7.80327 11.1886C7.98298 11.347 8.2086 11.4816 8.43344 11.5718ZM9.7864 10.7833C9.65102 10.8506 9.49348 10.8736 9.31298 10.8736C9.15135 10.8691 8.99149 10.8386 8.83956 10.7833L8.8364 10.7817C8.70181 10.7144 8.56802 10.6471 8.4564 10.5355C8.36169 10.416 8.27871 10.2877 8.20861 10.1523C8.14485 10.0107 8.11399 9.8564 8.11836 9.7011C8.11836 9.54356 8.14052 9.38602 8.20861 9.25064C8.25373 9.11606 8.34319 9.00285 8.4564 8.88964C8.56555 8.78136 8.69604 8.69698 8.83956 8.64185C8.9979 8.57456 9.15544 8.5516 9.31298 8.5516C9.47131 8.5516 9.62806 8.57456 9.7864 8.66481C9.94394 8.7321 10.0564 8.79939 10.1696 8.9126C10.282 9.00285 10.3493 9.13822 10.4174 9.2736C10.4846 9.40818 10.5076 9.56652 10.5076 9.72406C10.5076 9.8816 10.4846 10.0391 10.4174 10.1753C10.3563 10.3088 10.2724 10.4307 10.1696 10.5355C10.0564 10.6479 9.92177 10.716 9.7864 10.7833ZM13.7756 10.4453L12.6483 7.71797H11.6793L13.3022 11.5275L12.4686 13.5328H13.4146L15.7817 7.71797H14.8119L13.7756 10.4453Z" fill="#C3C3C3"/>
</g>
</svg>
