<svg width="16" height="19" viewBox="0 0 16 19" fill="none" xmlns="http://www.w3.org/2000/svg">
<path d="M16 0.730769V15.3462C16 15.54 15.9234 15.7258 15.787 15.8629C15.6506 15.9999 15.4656 16.0769 15.2727 16.0769H2.90909C2.52332 16.0769 2.15335 16.2309 1.88057 16.505C1.60779 16.7791 1.45455 17.1508 1.45455 17.5385H13.8182C14.0111 17.5385 14.1961 17.6155 14.3324 17.7525C14.4688 17.8895 14.5455 18.0754 14.5455 18.2692C14.5455 18.463 14.4688 18.6489 14.3324 18.786C14.1961 18.923 14.0111 19 13.8182 19H0.727273C0.534388 19 0.349403 18.923 0.213013 18.786C0.0766233 18.6489 0 18.463 0 18.2692V2.92308C0 2.14783 0.306493 1.40433 0.852053 0.856149C1.39761 0.307966 2.13755 0 2.90909 0H15.2727C15.4656 0 15.6506 0.0769915 15.787 0.214037C15.9234 0.351083 16 0.536957 16 0.730769Z" fill="#C3C3C3"/>
</svg>
