<svg width="24" height="20" viewBox="0 0 24 20" fill="none" xmlns="http://www.w3.org/2000/svg">
<g id="water_lux">
<path id="water_lux_2" d="M1.2 2.18375V0.074707H4.8V2.18375H1.2ZM4.95 7.79906L3.24 6.32273L5.79 4.08188L7.5 5.55821L4.95 7.79906ZM12 5.3473C10.34 5.3473 8.925 4.83322 7.755 3.80507C6.585 2.77691 6 1.53346 6 0.074707H8.4C8.4 0.953473 8.75 1.70042 9.45 2.31556C10.15 2.9307 11 3.23826 12 3.23826C13 3.23826 13.85 2.9307 14.55 2.31556C15.25 1.70042 15.6 0.953473 15.6 0.074707H18C18 1.53346 17.415 2.77691 16.245 3.80507C15.075 4.83322 13.66 5.3473 12 5.3473ZM10.8 9.56538V6.40182H13.2V9.56538H10.8ZM19.05 7.79906L16.53 5.55821L18.21 4.08188L20.76 6.29637L19.05 7.79906ZM19.2 2.18375V0.074707H22.8V2.18375H19.2ZM0 19.0561V16.947C0.76 16.947 1.325 16.7713 1.695 16.4198C2.065 16.0682 2.84 15.8925 4.02 15.8925C5.2 15.8925 5.975 16.0682 6.345 16.4198C6.715 16.7713 7.26 16.947 7.98 16.947C8.74 16.947 9.305 16.7713 9.675 16.4198C10.045 16.0682 10.82 15.8925 12 15.8925C13.14 15.8925 13.915 16.0682 14.325 16.4198C14.735 16.7713 15.3 16.947 16.02 16.947C16.78 16.947 17.335 16.7713 17.685 16.4198C18.035 16.0682 18.8 15.8925 19.98 15.8925C21.16 15.8925 21.935 16.0682 22.305 16.4198C22.675 16.7713 23.24 16.947 24 16.947V19.0561C22.86 19.0561 22.085 18.8803 21.675 18.5288C21.265 18.1773 20.7 18.0015 19.98 18.0015C19.26 18.0015 18.715 18.1773 18.345 18.5288C17.975 18.8803 17.2 19.0561 16.02 19.0561C14.88 19.0561 14.105 18.8803 13.695 18.5288C13.285 18.1773 12.72 18.0015 12 18.0015C11.24 18.0015 10.675 18.1773 10.305 18.5288C9.935 18.8803 9.16 19.0561 7.98 19.0561C6.8 19.0561 6.035 18.8803 5.685 18.5288C5.335 18.1773 4.78 18.0015 4.02 18.0015C3.26 18.0015 2.695 18.1773 2.325 18.5288C1.955 18.8803 1.18 19.0561 0 19.0561ZM0 14.838V12.7289C0.76 12.7289 1.325 12.5532 1.695 12.2017C2.065 11.8502 2.84 11.6744 4.02 11.6744C5.16 11.6744 5.925 11.8502 6.315 12.2017C6.705 12.5532 7.26 12.7289 7.98 12.7289C8.74 12.7289 9.305 12.5532 9.675 12.2017C10.045 11.8502 10.82 11.6744 12 11.6744C13.14 11.6744 13.91 11.8502 14.31 12.2017C14.71 12.5532 15.26 12.7289 15.96 12.7289C16.72 12.7289 17.285 12.5532 17.655 12.2017C18.025 11.8502 18.8 11.6744 19.98 11.6744C21.12 11.6744 21.895 11.8502 22.305 12.2017C22.715 12.5532 23.28 12.7289 24 12.7289V14.838C22.82 14.838 22.035 14.6622 21.645 14.3107C21.255 13.9592 20.7 13.7835 19.98 13.7835C19.26 13.7835 18.715 13.9592 18.345 14.3107C17.975 14.6622 17.2 14.838 16.02 14.838C14.88 14.838 14.105 14.6622 13.695 14.3107C13.285 13.9592 12.72 13.7835 12 13.7835C11.24 13.7835 10.685 13.9592 10.335 14.3107C9.985 14.6622 9.22 14.838 8.04 14.838C6.86 14.838 6.075 14.6622 5.685 14.3107C5.295 13.9592 4.74 13.7835 4.02 13.7835C3.3 13.7835 2.735 13.9592 2.325 14.3107C1.915 14.6622 1.14 14.838 0 14.838Z" fill="black"/>
</g>
</svg>
